HIERARCHY
ROOT Hips
{
	OFFSET -3.958830 18.904000 13.208200
	CHANNELS 6 Xposition Yposition Zposition Zrotation Yrotation Xrotation 
	JOINT LHipJoint
	{
		OFFSET 0.000000 0.000000 0.000000
		CHANNELS 3 Zrotation Yrotation Xrotation
		JOINT LeftUpLeg
		{
			OFFSET 1.800000 -1.400000 0.085000
			CHANNELS 3 Zrotation Yrotation Xrotation
			JOINT LeftLeg
			{
				OFFSET 2.215000 -6.000000 0.000000
				CHANNELS 3 Zrotation Yrotation Xrotation
				JOINT LeftFoot
				{
					OFFSET 2.500000 -6.900000 0.000000
					CHANNELS 3 Zrotation Yrotation Xrotation
					JOINT LeftToeBase
					{
						OFFSET 0.200000 -0.500000 1.950000
						CHANNELS 3 Zrotation Yrotation Xrotation
						End Site
						{
							OFFSET 0.000000 0.000000 0.000000
						}
					}
				}
			}
		}
	}
	JOINT RHipJoint
	{
		OFFSET 0.000000 0.000000 0.000000
		CHANNELS 3 Zrotation Yrotation Xrotation
		JOINT RightUpLeg
		{
			OFFSET -1.800000 -1.400000 0.085000
			CHANNELS 3 Zrotation Yrotation Xrotation
			JOINT RightLeg
			{
				OFFSET -2.215000 -6.000000 0.000000
				CHANNELS 3 Zrotation Yrotation Xrotation
				JOINT RightFoot
				{
					OFFSET -2.500000 -6.900000 0.000000
					CHANNELS 3 Zrotation Yrotation Xrotation
					JOINT RightToeBase
					{
						OFFSET -0.200000 -0.500000 1.950000
						CHANNELS 3 Zrotation Yrotation Xrotation
						End Site
						{
							OFFSET 0.000000 0.000000 0.000000
						}
					}
				}
			}
		}
	}
	JOINT LowerBack
	{
		OFFSET 0.000000 0.000000 0.000000
		CHANNELS 3 Zrotation Yrotation Xrotation
		JOINT Spine
		{
			OFFSET -0.087000 1.940000 -0.288900
			CHANNELS 3 Zrotation Yrotation Xrotation
			JOINT Spine1
			{
				OFFSET 0.000000 1.950000 0.060000
				CHANNELS 3 Zrotation Yrotation Xrotation
				JOINT Neck
				{
					OFFSET 0.000000 0.000000 0.000000
					CHANNELS 3 Zrotation Yrotation Xrotation
					JOINT Neck1
					{
						OFFSET 0.000000 1.600000 0.340000
						CHANNELS 3 Zrotation Yrotation Xrotation
						JOINT Head
						{
							OFFSET 0.000000 1.667000 -0.240000
							CHANNELS 3 Zrotation Yrotation Xrotation
							End Site
							{
								OFFSET 0.000000 0.000000 0.000000
							}
						}
					}
				}
				JOINT LeftShoulder
				{
					OFFSET 0.000000 0.000000 0.000000
					CHANNELS 3 Zrotation Yrotation Xrotation
					JOINT LeftArm
					{
						OFFSET 2.700000 1.550000 -0.730000
						CHANNELS 3 Zrotation Yrotation Xrotation
						JOINT LeftForeArm
						{
							OFFSET 5.450000 0.000000 0.000000
							CHANNELS 3 Zrotation Yrotation Xrotation
							JOINT LeftHand
							{
								OFFSET 3.450000 0.000000 0.000000
								CHANNELS 3 Zrotation Yrotation Xrotation
								JOINT LeftHandIndex1
								{
									OFFSET 0.750000 0.000000 0.000000
									CHANNELS 3 Zrotation Yrotation Xrotation
									End Site
									{
										OFFSET 0.000000 0.000000 0.000000
									}
								}
							}
						}
					}
				}
				JOINT RightShoulder
				{
					OFFSET 0.000000 0.000000 0.000000
					CHANNELS 3 Zrotation Yrotation Xrotation
					JOINT RightArm
					{
						OFFSET -2.700000 1.550000 -0.730000
						CHANNELS 3 Zrotation Yrotation Xrotation
						JOINT RightForeArm
						{
							OFFSET -5.450000 0.000000 0.000000
							CHANNELS 3 Zrotation Yrotation Xrotation
							JOINT RightHand
							{
								OFFSET -3.450000 0.000000 0.000000
								CHANNELS 3 Zrotation Yrotation Xrotation
								JOINT RightHandIndex1
								{
									OFFSET -0.750000 0.000000 0.000000
									CHANNELS 3 Zrotation Yrotation Xrotation
									End Site
									{
										OFFSET 0.000000 0.000000 0.000000
									}
								}
							}
						}
					}
				}
			}
		}
	}
}
MOTION
Frames: 14
Frame Time: 0.016667
0.824980 17.216440 -2.639800 8.537226 -66.839919 -1.425916 -15.295189 10.816283 4.706475 -5.429002 -4.625838 -44.621068 -8.288761 2.443345 -1.716777 -1.202028 2.434952 4.103981 0.239030 -0.340060 0.078370 18.267900 -11.633976 2.616365 0.605414 1.283900 -5.856187 5.047888 -6.500246 21.960578 -0.317563 -4.880369 3.201285 -0.004520 0.749910 0.157360 -6.220632 2.618897 -7.343457 19.020549 13.503510 4.758019 4.198038 12.104357 14.499266 0.983966 -5.512951 -13.342891 -13.233709 5.365130 51.603018 -3.095880 -0.335650 6.647680 -4.237913 -9.293482 10.005416 -42.653103 4.904793 -6.674994 -19.237128 -40.107323 3.122397 -3.682765 2.819688 0.744380 0.452840 -0.361350 0.365090 3.619365 17.535154 5.146528 37.328263 31.474666 3.539032 -13.878050 34.606403 -4.375051 1.560324 -1.229021 -0.607350 0.486970 0.083880 -0.278150 
0.845220 17.180630 -2.655640 9.412890 -66.835200 -3.185611 -15.294418 10.936974 4.710684 -6.234467 -4.605622 -45.316660 -6.912366 2.712334 1.467162 -1.180303 2.161292 4.134516 0.394810 -0.132170 0.166860 18.225837 -11.744595 2.723737 0.670814 0.290809 -3.596315 4.137293 -6.137639 19.155142 -0.402873 -4.720974 3.235775 0.073500 0.586870 0.152720 -6.261786 2.695015 -7.435374 19.820627 13.593746 6.768629 2.569919 13.045271 14.140181 1.436853 -5.264794 -13.543720 -12.839923 4.748720 52.472016 -2.386910 -1.058780 3.552500 -6.690893 -10.187524 9.801574 -42.519693 4.588282 -7.854345 -12.883104 -43.519103 1.191642 -3.521556 2.874985 0.779530 0.336240 -0.243060 0.404480 4.916537 18.724370 5.531302 35.544733 30.976484 3.541068 -13.282787 28.978288 -3.752282 1.686201 -1.297575 -0.517120 0.423470 -0.039810 -0.269510 
0.884820 17.102580 -2.658310 9.798511 -67.107813 -5.979195 -15.258597 11.203491 4.701880 -7.529076 -4.231935 -46.847717 -3.153944 3.409661 10.199250 -1.059663 2.062796 4.093382 0.515090 0.096600 0.207330 18.143974 -11.979601 3.038168 0.257252 -0.856029 0.630645 3.441612 -5.982123 15.351752 -0.547576 -4.742373 3.250395 0.134530 0.454290 0.160050 -6.470295 2.918103 -7.703284 23.571633 12.580101 12.235288 -2.053500 14.605981 13.140510 2.558894 -5.472068 -14.251968 -12.662262 3.864955 51.812677 -3.018910 -1.400100 -1.006560 -12.002947 -12.029539 9.214029 -42.178919 4.473429 -10.259304 0.681183 -49.298712 -4.249065 -3.379083 2.832476 0.764540 0.243910 -0.100710 0.460150 7.261678 21.934474 6.738062 32.594379 31.661067 4.122612 -12.603833 18.852169 -2.753253 1.905860 -1.335507 -0.390730 0.392820 -0.157730 -0.208320 
0.921820 17.015060 -2.658030 9.758771 -66.726608 -7.452501 -15.274125 11.081842 4.890738 -8.644547 -4.742161 -50.688280 2.339001 4.071114 23.930785 -0.921340 3.348863 3.549230 0.571770 0.118800 0.294640 18.113926 -12.054348 3.221378 0.169511 -1.340694 3.443829 3.432738 -6.011874 13.110118 -0.618173 -4.900644 3.149293 0.161540 0.402530 0.191090 -6.694826 3.436731 -7.895781 26.286320 11.251496 16.101817 -6.587356 15.590546 12.582060 3.476330 -5.340083 -13.923447 -10.618065 3.515449 48.067427 -2.574460 -0.812050 -4.053710 -16.154649 -12.462551 8.024358 -43.131587 3.177859 -12.462676 19.173166 -55.112933 -13.701628 -3.361244 2.750190 0.768370 0.223600 -0.105430 0.413460 8.958995 23.215452 7.305566 32.493698 33.281988 4.952739 -12.198147 12.286266 -2.221907 2.026255 -1.399780 -0.371340 0.338850 -0.157120 -0.253600 
0.910390 16.948770 -2.634720 8.896877 -65.306788 -6.632932 -15.295962 10.662576 5.240872 -8.453478 -6.114265 -54.376365 6.281854 4.383868 37.006178 -0.619060 5.532909 2.701211 0.579980 0.137910 0.293320 18.193275 -11.863016 3.197870 0.373775 -1.522023 4.753976 4.442424 -6.203149 11.604265 -0.677773 -5.082443 3.064627 0.172120 0.399570 0.291270 -6.710370 3.707460 -8.069305 26.805738 10.896198 16.474589 -8.089824 15.635448 11.839993 4.435067 -4.129125 -12.898016 -7.265126 3.343609 45.434383 -5.649700 1.852770 -4.789950 -19.969776 -12.118975 7.333673 -44.714662 1.592129 -13.204050 33.126129 -60.253474 -22.626769 -3.410556 2.631484 0.734560 0.287470 -0.089050 0.411710 10.410642 22.101942 6.977717 35.458178 32.276843 4.359503 -12.584641 14.154282 -2.617685 1.944823 -1.497052 -0.328480 0.261130 -0.143650 -0.258480 
0.889120 16.929160 -2.637540 9.294318 -64.073731 -7.029617 -15.359610 10.530323 5.535909 -6.819707 -7.138760 -56.327528 8.406689 5.013695 48.578033 -0.172948 7.769589 1.909664 0.616570 0.193400 0.314020 18.214787 -11.555538 3.019279 0.130061 -1.434380 4.868066 5.238917 -6.453708 12.602443 -0.709767 -5.168833 3.053203 0.173720 0.390990 0.345570 -6.273540 3.294976 -8.237018 24.294119 10.753783 17.254651 -6.909795 15.338745 11.119505 4.737342 -3.623293 -11.884675 -6.289870 3.569345 43.779828 -7.024920 3.463450 -5.216730 -23.207431 -11.323270 6.859160 -49.143728 -1.684593 -13.272610 47.743953 -63.698700 -33.118504 -3.385948 2.346055 0.694480 0.316770 -0.058970 0.444860 12.763569 20.979691 6.580449 37.020326 29.126759 1.618474 -11.120264 22.767034 -3.104714 1.789557 -1.541703 -0.269860 0.214590 -0.186180 -0.239270 
0.863510 16.933870 -2.634010 9.260171 -63.701692 -7.711230 -15.396868 10.621205 5.647807 -4.445357 -7.568972 -55.627986 10.259672 5.305685 57.395729 0.254938 9.415778 1.371530 0.624230 0.237240 0.305820 18.201159 -11.390695 2.850181 -0.753658 -1.169224 4.570607 6.188688 -6.912633 15.028098 -0.739516 -5.254284 3.042707 0.159400 0.372070 0.332880 -5.906390 2.833784 -8.351886 22.344355 9.722959 18.324443 -6.623702 14.384203 11.087323 4.828970 -3.692078 -11.828091 -6.559965 4.043391 44.642727 -5.528280 3.430570 -5.802430 -24.124380 -10.848420 7.026288 -55.050877 -4.308947 -13.080250 65.508973 -65.117535 -46.648993 -3.317516 1.813264 0.683930 0.286660 -0.019720 0.460610 13.557323 20.606408 6.723139 39.835180 26.631247 -1.371134 -8.875377 32.500158 -3.421175 1.681097 -1.525252 -0.229060 0.217500 -0.215510 -0.207660 
0.825760 16.969240 -2.608090 6.120725 -63.285010 -5.272661 -15.325754 10.778686 5.533076 -0.536184 -7.145383 -52.554978 9.690439 6.201888 61.322020 0.484495 10.164716 1.122556 0.661950 0.283460 0.321380 18.263103 -11.415757 2.764205 -0.030380 -0.827658 2.657604 6.529356 -7.445810 19.451168 -0.762028 -5.381805 2.986388 0.156740 0.320060 0.339100 -5.866318 2.575288 -8.286386 22.614860 7.512459 18.451024 -7.597048 12.140825 10.579360 4.834314 -4.050752 -11.248550 -7.022800 4.982396 44.807891 -4.624170 4.108910 -5.631780 -24.181416 -8.728664 6.914942 -59.371830 -4.666479 -11.186721 84.365877 -65.819888 -63.509912 -3.360326 1.298243 0.671800 0.253360 0.005680 0.473230 13.626579 18.127066 6.104033 45.073911 25.079144 -2.920283 -2.510800 41.955688 -2.337809 1.659714 -1.580890 -0.179860 0.153130 -0.261640 -0.196180 
0.800420 17.019800 -2.590940 1.929828 -63.305194 -1.906940 -15.218267 11.138362 5.207386 3.827314 -6.137486 -47.916938 7.583596 7.263947 60.200237 0.539489 10.024607 1.192132 0.687590 0.344140 0.304370 18.328578 -11.460654 2.737174 1.156353 0.065385 -0.629042 6.543386 -8.204470 25.800762 -0.839989 -5.644888 2.932497 0.143130 0.320180 0.334920 -5.865028 2.093799 -8.111253 24.046492 4.318117 19.214532 -9.926482 9.196074 10.283622 4.806598 -4.964721 -11.140940 -9.088058 7.122309 44.938659 -3.793280 5.638320 -6.031920 -22.885712 -6.830653 6.801816 -61.592050 -3.911248 -8.529132 101.647746 -65.179948 -84.612755 -3.673340 1.427563 0.676610 0.230380 0.058330 0.543800 12.425200 15.377554 5.842715 51.296725 23.403784 -4.330220 8.794757 51.803106 1.190455 1.711036 -1.659691 -0.145390 0.160750 -0.327880 -0.148980 
0.771000 17.042380 -2.552360 -4.168375 -63.718766 4.044631 -15.062810 11.514895 4.524460 7.496207 -4.389343 -42.498270 6.516711 7.151431 54.450864 0.286883 9.099509 1.511687 0.607160 0.251500 0.253990 18.450543 -11.502956 2.881185 2.383041 2.401152 -6.126681 7.816434 -9.773798 34.168788 -0.937028 -6.403184 2.684409 0.115130 0.388590 0.298550 -5.974106 1.797153 -7.821217 27.191934 1.858740 18.425542 -12.075062 6.756259 10.729786 4.911007 -5.419720 -10.837613 -10.490458 7.898875 43.552130 -4.662130 6.493960 -4.444600 -21.328236 -4.623848 6.471722 -61.129384 -2.645743 -6.525332 119.285122 -65.918198 -111.450524 -3.856064 2.510182 0.663900 0.274920 -0.000110 0.538250 10.720372 11.477676 5.412224 54.061148 20.356649 -4.498278 26.625490 59.011929 9.834137 1.783901 -1.793238 -0.211070 0.207110 -0.291910 -0.154850 
0.760550 17.040010 -2.514720 -7.543208 -63.554455 9.078547 -14.950429 11.795912 3.772215 8.394971 -3.244816 -38.599111 7.488640 5.604946 46.373289 0.018141 7.549290 2.053257 0.567400 0.205250 0.190580 18.574631 -11.234953 3.241926 1.268423 6.418751 -14.724510 10.871225 -12.972912 44.191201 -1.182683 -7.976885 2.147756 0.100730 0.470280 0.342300 -5.889935 1.342228 -7.639209 28.356300 0.143996 16.763641 -13.026493 4.568147 11.161412 4.586195 -6.108647 -10.392548 -11.949003 8.287730 38.912734 -6.038440 7.396580 -0.887480 -19.430974 -2.293381 6.249450 -58.198962 -0.942913 -6.020754 139.569278 -64.462141 -137.203056 -3.727673 3.350177 0.536960 0.378900 -0.094990 0.557970 9.557569 7.961271 4.768186 53.180538 16.609668 -3.838744 46.811589 63.284741 21.654547 1.883485 -2.030178 -0.191070 0.135640 -0.282290 -0.120500 
0.777760 17.033480 -2.519680 -6.451074 -63.206815 9.327838 -14.984505 12.000899 3.183352 9.221822 -2.586640 -34.765067 5.247119 5.748709 39.048922 -0.195762 6.357017 2.533404 0.531030 0.173010 0.170370 18.564678 -10.667936 3.823584 -2.900085 9.884146 -23.687643 14.937095 -17.812307 52.925948 -1.614646 -9.931402 1.545449 0.100240 0.550430 0.323460 -5.674423 0.532974 -7.703187 26.679525 -1.842955 17.528963 -13.186629 2.469645 11.701651 4.339362 -6.562716 -10.525001 -13.095393 8.594135 36.217152 -6.737750 8.003930 -0.244120 -17.191455 -1.534548 6.107216 -53.719923 0.005493 -5.616626 149.380614 -60.831916 -148.389271 -3.717469 3.382187 0.511270 0.426480 -0.125450 0.594070 7.990342 6.442328 4.938283 50.601365 12.469949 -4.181712 70.807147 66.168752 36.265271 2.106716 -1.955620 -0.239580 0.194530 -0.296880 -0.099170 
0.792660 17.047730 -2.529350 -7.199330 -62.720405 10.508758 -14.999195 12.033449 2.731003 11.094928 -1.995246 -31.074056 1.067813 6.378825 31.950483 -0.350433 5.394735 2.838170 0.598560 0.265820 0.185960 18.604413 -10.126069 4.338362 -6.005417 11.702033 -30.532205 17.778220 -22.189213 58.868260 -2.040883 -11.492568 1.051866 0.142670 0.495610 0.329540 -5.576299 -0.116580 -7.778879 26.571083 -4.662406 19.030970 -13.978892 -0.068378 12.253058 3.937468 -8.047784 -10.718798 -16.361786 10.487953 34.295836 -4.990850 8.011920 -2.309060 -15.462434 -0.708059 6.060486 -49.409306 1.062242 -5.171663 153.267833 -55.448490 -150.973283 -3.681960 3.436920 0.515270 0.371180 -0.094340 0.593560 7.276425 5.584577 4.966277 46.492632 8.584390 -5.870823 92.335099 64.462329 49.388488 2.260109 -1.845249 -0.192350 0.159430 -0.318580 -0.086110 
0.820860 17.086880 -2.570830 -8.379456 -62.730159 11.515107 -15.096622 11.941953 2.751783 12.600701 -2.232178 -30.906698 -1.131889 7.073956 31.337869 -0.292428 5.489627 2.808106 0.668100 0.400970 0.200960 18.585769 -9.625239 4.567528 -6.621828 12.224065 -35.941366 16.246077 -23.572285 63.464033 -2.280810 -12.214345 0.889903 0.194830 0.470740 0.298560 -5.382836 -0.794995 -7.980179 25.545603 -7.497657 22.279120 -13.537390 -2.234406 12.634030 3.584995 -9.403944 -11.142151 -19.683873 11.217006 32.712168 -4.446440 7.382950 -5.716040 -14.129788 -0.612436 6.096105 -44.858091 1.916704 -5.054323 154.146092 -50.563692 -148.884847 -3.638803 3.337498 0.528660 0.315060 -0.019240 0.657540 6.914435 5.770777 5.290119 40.479536 3.950393 -8.584931 109.828743 61.587018 61.772859 2.179805 -1.855662 -0.164970 0.225710 -0.391790 -0.035120 
